<svg width="120" height="120" viewBox="0 0 120 120" fill="none" xmlns="http://www.w3.org/2000/svg">
  <!-- 背景圆形 -->
  <circle cx="60" cy="60" r="55" fill="url(#gradient1)" stroke="url(#gradient2)" stroke-width="2"/>
  
  <!-- 麻糬主体 - 更圆润的不规则形状 -->
  <path d="M30 75 Q25 70 30 65 Q35 60 40 65 Q45 70 50 75 Q55 80 60 75 Q65 80 70 75 Q75 70 80 65 Q85 60 90 65 Q95 70 90 75 Q85 80 80 75 Q75 70 70 75 Q65 80 60 75 Q55 70 50 75 Q45 80 40 75 Q35 70 30 75 Z" fill="url(#mochiGradient)" stroke="url(#mochiStroke)" stroke-width="1.5"/>
  
  <!-- 眼睛 - 闭着的开心眼睛 -->
  <path d="M45 65 Q47 63 49 65" stroke="#2D3748" stroke-width="2.5" fill="none" stroke-linecap="round"/>
  <path d="M71 65 Q73 63 75 65" stroke="#2D3748" stroke-width="2.5" fill="none" stroke-linecap="round"/>
  
  <!-- 嘴巴 - 小微笑 -->
  <path d="M55 78 Q60 80 65 78" stroke="#2D3748" stroke-width="2" fill="none" stroke-linecap="round"/>
  
  <!-- 腮红 - 更明显 -->
  <ellipse cx="42" cy="72" rx="5" ry="3" fill="url(#blushGradient)" opacity="0.9"/>
  <ellipse cx="78" cy="72" rx="5" ry="3" fill="url(#blushGradient)" opacity="0.9"/>
  
  <!-- 心形 - 更立体的红色心 -->
  <path d="M60 25 C54 20, 42 20, 42 30 C42 20, 30 20, 30 30 C30 40, 60 55, 60 55 C60 55, 90 40, 90 30 C90 20, 78 20, 78 30 C78 20, 66 20, 60 25 Z" fill="url(#heartGradient)"/>
  
  <!-- 高光效果 - 更自然 -->
  <ellipse cx="50" cy="62" rx="15" ry="10" fill="url(#highlightGradient)" opacity="0.6"/>
  
  <!-- 渐变定义 -->
  <defs>
    <!-- 背景渐变 -->
    <radialGradient id="gradient1" cx="0.3" cy="0.3" r="0.7">
      <stop offset="0%" stop-color="#F7FAFC" stop-opacity="0.9"/>
      <stop offset="100%" stop-color="#E2E8F0" stop-opacity="0.7"/>
    </radialGradient>
    
    <linearGradient id="gradient2" x1="0%" y1="0%" x2="100%" y2="100%">
      <stop offset="0%" stop-color="#CBD5E0" stop-opacity="0.6"/>
      <stop offset="100%" stop-color="#A0AEC0" stop-opacity="0.4"/>
    </linearGradient>
    
    <!-- 麻糬渐变 - 更粉嫩的米色 -->
    <radialGradient id="mochiGradient" cx="0.3" cy="0.3" r="0.8">
      <stop offset="0%" stop-color="#FFF8F0"/>
      <stop offset="20%" stop-color="#FEF3E7"/>
      <stop offset="50%" stop-color="#FDE68A"/>
      <stop offset="80%" stop-color="#F59E0B"/>
      <stop offset="100%" stop-color="#D97706"/>
    </radialGradient>
    
    <linearGradient id="mochiStroke" x1="0%" y1="0%" x2="100%" y2="100%">
      <stop offset="0%" stop-color="#E53E3E" stop-opacity="0.3"/>
      <stop offset="100%" stop-color="#C53030" stop-opacity="0.2"/>
    </linearGradient>
    
    <!-- 腮红渐变 -->
    <radialGradient id="blushGradient" cx="0.5" cy="0.5" r="0.8">
      <stop offset="0%" stop-color="#FED7D7" stop-opacity="0.9"/>
      <stop offset="100%" stop-color="#FBB6CE" stop-opacity="0.7"/>
    </radialGradient>
    
    <!-- 心形渐变 - 鲜艳的红色 -->
    <radialGradient id="heartGradient" cx="0.3" cy="0.3" r="0.8">
      <stop offset="0%" stop-color="#FF6B6B"/>
      <stop offset="30%" stop-color="#EE5A52"/>
      <stop offset="70%" stop-color="#E53E3E"/>
      <stop offset="100%" stop-color="#C53030"/>
    </radialGradient>
    
    <!-- 高光渐变 -->
    <radialGradient id="highlightGradient" cx="0.2" cy="0.2" r="0.8">
      <stop offset="0%" stop-color="#FFFFFF" stop-opacity="0.8"/>
      <stop offset="100%" stop-color="#FFFFFF" stop-opacity="0.2"/>
    </radialGradient>
  </defs>
</svg>